Coordinates
version=1
nRows=12
nColumns=24
inDegrees=yes

Units are S.I. units (second, meters, Newtons, ...)
Angles are in degrees.

endheader
time	pelvis_tilt	pelvis_list	pelvis_rotation	pelvis_tx	pelvis_ty	pelvis_tz	hip_flexion_r	hip_adduction_r	hip_rotation_r	knee_angle_r	ankle_angle_r	subtalar_angle_r	mtp_angle_r	hip_flexion_l	hip_adduction_l	hip_rotation_l	knee_angle_l	ankle_angle_l	subtalar_angle_l	mtp_angle_l	lumbar_extension	lumbar_bending	lumbar_rotation
      5.76000000	     14.90984556	     -2.61513656	     14.39670956	      2.39791954	      0.75530275	     -0.25816647	     -6.79242482	      9.57755929	     -5.45129581	    -14.36687562	     24.00087318	      1.46379684	      0.00000000	      9.73685755	     -0.29455326	     11.94616094	    -71.03673565	     20.23939413	     -4.87756743	      0.00000000	    -31.69228086	      8.80279452	     -1.10943226
      5.76500000	     14.90233248	     -2.54906689	     14.10271013	      2.40515826	      0.75576390	     -0.25776183	     -7.71705857	      9.64435758	     -5.12935758	    -13.76214311	     24.20771895	      1.71877148	      0.00000000	     10.52331033	     -0.07878067	     11.47104752	    -70.18237235	     20.76554812	     -5.19745641	      0.00000000	    -31.75023204	      8.56717559	     -0.70961803
      5.77000000	     14.89952739	     -2.47842227	     13.76754059	      2.41238089	      0.75615063	     -0.25734892	     -8.63999441	      9.68350809	     -4.81010870	    -13.17455891	     24.43432150	      2.02739309	      0.00000000	     11.26700818	      0.12154710	     10.95209671	    -69.22425474	     21.20631116	     -5.52449032	      0.00000000	    -31.82684166	      8.31749761	     -0.27874726
      5.77500000	     14.89457356	     -2.41511006	     13.40970889	      2.41960597	      0.75644893	     -0.25692675	     -9.54444489	      9.70929742	     -4.52224051	    -12.61958772	     24.66645267	      2.38469990	      0.00000000	     11.97997696	      0.28223446	     10.38068005	    -68.16292256	     21.59246553	     -5.86963710	      0.00000000	    -31.90250006	      8.07125648	      0.16688611
      5.78000000	     14.89646911	     -2.35608166	     13.00747593	      2.42682167	      0.75667331	     -0.25650061	    -10.44743389	      9.71354918	     -4.25094339	    -12.08405840	     24.92061964	      2.80084136	      0.00000000	     12.64409117	      0.41709366	      9.76867159	    -66.99567076	     21.90597562	     -6.23334193	      0.00000000	    -31.99750486	      7.82230959	      0.64027766
      5.78500000	     14.90229519	     -2.30960002	     12.58396893	      2.43403662	      0.75681490	     -0.25608258	    -11.34050133	      9.70877984	     -4.00841586	    -11.57551971	     25.17557666	      3.26373412	      0.00000000	     13.26795587	      0.51267217	      9.11916038	    -65.72772962	     22.16574213	     -6.61473075	      0.00000000	    -32.09996330	      7.58841671	      1.12860960
      5.79000000	     14.91872718	     -2.27071154	     12.13812569	      2.44123327	      0.75687760	     -0.25567215	    -12.23611159	      9.69211467	     -3.78566915	    -11.08078363	     25.45068105	      3.77701886	      0.00000000	     13.84304738	      0.58288636	      8.45157896	    -64.36305219	     22.36594323	     -7.00677910	      0.00000000	    -32.22379943	      7.36140223	      1.63484416
      5.79500000	     15.00062031	     -2.18693804	     11.69872574	      2.44843666	      0.75692867	     -0.25530668	    -13.21551584	      9.62148383	     -3.64406134	    -10.58444025	     25.82753475	      4.42876429	      0.00000000	     14.28645192	      0.68209598	      7.79362437	    -62.88121782	     22.48829950	     -7.42228312	      0.00000000	    -32.42991684	      7.11325015	      2.08648475
      5.80000000	     15.00759280	     -2.22455754	     11.20278509	      2.45559797	      0.75679953	     -0.25489603	    -14.05826242	      9.63462633	     -3.45720143	    -10.14441200	     26.04621259	      4.98202178	      0.00000000	     14.81405535	      0.63202694	      7.07459251	    -61.34012659	     22.61900461	     -7.79307262	      0.00000000	    -32.55538039	      6.95273484	      2.68257974
      5.80500000	     15.05806690	     -2.22035600	     10.69422547	      2.46276660	      0.75664305	     -0.25451867	    -14.96033386	      9.59082540	     -3.28201125	     -9.70646509	     26.36152556	      5.59545555	      0.00000000	     15.22896627	      0.61200215	      6.35091673	    -59.68263159	     22.70244532	     -8.15009257	      0.00000000	    -32.74035441	      6.76268779	      3.23735746
      5.81000000	     15.15958461	     -2.20518493	     10.20552128	      2.46992147	      0.75644995	     -0.25418109	    -15.92046546	      9.53205126	     -3.15589275	     -9.26625151	     26.74500189	      6.29991137	      0.00000000	     15.54056867	      0.60047597	      5.67271352	    -57.92649158	     22.74314251	     -8.45701561	      0.00000000	    -32.98842298	      6.57885826	      3.76521626
      5.81500000	     15.27270023	     -2.20415891	      9.73016948	      2.47708219	      0.75619163	     -0.25387388	    -16.87928178	      9.47321511	     -3.13935039	     -8.84871557	     27.05078756	      7.03884222	      0.00000000	     15.79798867	      0.55735308	      4.97826233	    -56.07458502	     22.81317675	     -8.71156419	      0.00000000	    -33.24823901	      6.42550093	      4.24498850
